<?xml version="1.0" encoding="UTF-8"?>
<svg version="1.1" xmlns="http://www.w3.org/2000/svg" width="960" height="960">
<defs>
<clipPath id="circleClip">
<circle cx="480" cy="480" r="480"/>
</clipPath>
</defs>
<g clip-path="url(#circleClip)">
<path d="M0 0 C316.8 0 633.6 0 960 0 C960 316.8 960 633.6 960 960 C643.2 960 326.4 960 0 960 C0 643.2 0 326.4 0 0 Z " fill="#1B1D21" transform="translate(0,0)"/>
<path d="M0 0 C10.38809445 7.90735548 15.52602592 17.79387001 21.3671875 29.1796875 C24.2320077 28.6379583 26.89535878 28.01027407 29.6796875 27.1171875 C38.67591226 24.83814389 49.61856998 25.21405444 58.3671875 28.1796875 C59.23730469 28.4478125 60.10742188 28.7159375 61.00390625 28.9921875 C67.40478005 31.08797155 72.32360833 33.7263144 77.3671875 38.1796875 C77.97304688 38.70433594 78.57890625 39.22898437 79.203125 39.76953125 C88.56474679 48.45662571 94.04034751 60.56169941 95.3671875 73.1796875 C95.47481056 76.49385477 95.46246361 79.80175774 95.4296875 83.1171875 C95.42517578 83.99181641 95.42066406 84.86644531 95.41601562 85.76757812 C95.40433584 87.90497797 95.38640439 90.04234213 95.3671875 92.1796875 C95.96144531 92.39882813 96.55570313 92.61796875 97.16796875 92.84375 C112.86399438 98.84876136 124.22843865 106.29689298 131.29980469 121.91381836 C136.33877298 133.69995898 135.90360153 148.29172635 131.64453125 160.265625 C129.36348902 165.46947057 126.79919557 170.81539195 122.68359375 174.81640625 C121.11393651 176.12610382 121.11393651 176.12610382 121.3671875 178.3671875 C122.2712949 180.90998957 123.15964035 182.38520845 124.6796875 184.5546875 C131.27677179 194.71879992 132.97216157 208.0105498 130.671875 219.71875 C128.76143314 227.21603023 126.16535851 233.13034785 121.3671875 239.1796875 C120.95082031 239.78039062 120.53445313 240.38109375 120.10546875 241 C113.36243389 250.03121185 101.91039704 255.07393585 91.3671875 258.1796875 C90.35205078 258.51613281 90.35205078 258.51613281 89.31640625 258.859375 C75.34683358 262.81968104 57.15304027 260.87252163 43.8046875 255.4921875 C39.92604899 254.01125279 37.49548088 253.84626529 33.3671875 254.1796875 C17.28498852 261.52069127 3.54972893 274.53805078 -3.37890625 290.79296875 C-10.31149977 309.51745033 -10.58157191 334.34219254 -2.37426758 352.82885742 C1.42058482 360.66128736 6.72327043 366.97464611 13.14453125 372.7890625 C13.54800781 373.24796875 13.95148438 373.706875 14.3671875 374.1796875 C14.12265626 377.52161442 13.76175193 378.78512307 11.3671875 381.1796875 C8.6426361 381.38348581 6.01930784 381.46287027 3.29321289 381.4543457 C2.45893265 381.45945663 1.6246524 381.46456757 0.76509094 381.46983337 C-2.00173044 381.48377066 -4.76830387 381.48276949 -7.53515625 381.48046875 C-9.45325311 381.48435347 -11.3713491 381.48868767 -13.28944397 381.49345398 C-17.31367784 381.50092513 -21.33782399 381.50061849 -25.36206055 381.49536133 C-30.52518631 381.48956612 -35.68795342 381.50649461 -40.85101986 381.529706 C-44.81350309 381.54442106 -48.77589952 381.54531808 -52.73840523 381.54219627 C-54.64224521 381.54271063 -56.5460899 381.54796969 -58.44990349 381.55800819 C-61.10998874 381.57031198 -63.76936981 381.56361758 -66.42944336 381.55200195 C-67.21967896 381.55964569 -68.00991455 381.56728943 -68.82409668 381.57516479 C-74.13670186 381.52375522 -74.13670186 381.52375522 -76.65284729 379.7787323 C-77.6328125 378.1796875 -77.6328125 378.1796875 -77.515625 376.22265625 C-76.49095357 373.85140334 -75.27148611 372.37844829 -73.5078125 370.4921875 C-56.61644574 351.73169409 -54.55928284 333.84112476 -55.44628906 309.20654297 C-56.46961013 292.6003458 -64.4714426 278.39999902 -76.6328125 267.1796875 C-87.15060101 258.34571719 -87.15060101 258.34571719 -99.828125 253.96484375 C-105.59418892 254.79356954 -110.9934174 256.40689694 -116.51953125 258.2421875 C-133.62047869 263.39178271 -153.44546184 260.55075617 -169.05493164 252.42675781 C-181.33393113 245.66031323 -188.77457032 236.00932059 -193.04394531 222.61352539 C-194.07000174 218.37274739 -194.12011349 214.21262299 -194.0703125 209.8671875 C-194.06346436 208.94655518 -194.05661621 208.02592285 -194.04956055 207.07739258 C-193.81543093 197.11855327 -191.49839642 188.93542435 -185.48828125 180.8984375 C-184.46297473 179.20918203 -184.46297473 179.20918203 -184.7890625 177.24609375 C-185.83208179 174.69166226 -187.26292806 172.80392702 -188.9453125 170.6171875 C-197.00245543 159.43314516 -198.80667681 146.68392492 -197.6328125 133.1796875 C-195.11151056 119.9536579 -188.66851115 108.83833393 -177.6484375 101.078125 C-171.03216305 96.80705581 -165.23576297 94.22184551 -157.6328125 92.1796875 C-157.65375977 91.52073486 -157.67470703 90.86178223 -157.69628906 90.18286133 C-158.23308485 70.72741145 -157.28458582 55.43160116 -143.3828125 40.4296875 C-131.04009017 28.91719313 -117.34727074 25.45177128 -100.88037109 26.02148438 C-94.71205523 26.4556652 -88.65590618 27.83410274 -82.6328125 29.1796875 C-82.2821875 27.9215625 -81.9315625 26.6634375 -81.5703125 25.3671875 C-77.28065547 12.57877333 -68.28717778 2.68820227 -56.6328125 -3.8203125 C-37.58368709 -12.72110032 -17.70919707 -12.24404426 0 0 Z " fill="#FBFCFB" transform="translate(511.6328125,293.8203125)"/>
<path d="M0 0 C4.5100359 4.62872105 5.12829197 7.59536295 5.24609375 13.9296875 C5.27750189 15.37085684 5.3092537 16.81201873 5.34130859 18.25317383 C5.35667664 19.00869537 5.37204468 19.76421692 5.38787842 20.54263306 C5.61700669 31.31236654 5.86035974 42.08332967 6.875 52.8125 C6.94130615 53.59157715 7.0076123 54.3706543 7.07592773 55.17333984 C7.52796914 59.43902833 8.33461508 62.59125396 11 66 C11.66 66 12.32 66 13 66 C17.94825261 60.95882246 21.60100976 55.11940257 24.9375 48.9375 C32.45829395 35.19036889 45.16368665 26.18437187 59.875 21.25 C64.89676089 19.81743565 69.802346 19.45398382 75 20 C76.56662231 21.56662231 76.28356434 23.06961121 76.375 25.25 C76.23366873 36.24243185 70.63192412 45.59857146 64 54 C63.52820313 54.63550781 63.05640625 55.27101563 62.5703125 55.92578125 C53.74249952 67.17251473 40.2073188 72.4481703 26.75 75.8125 C23.91818629 76.81198407 23.91818629 76.81198407 22.15625 79.01953125 C20.50871109 83.26639676 20.46950921 87.16609137 20.5 91.6875 C20.50205444 93.02953491 20.50205444 93.02953491 20.50415039 94.39868164 C20.64331958 100.38841441 21.46044379 104.92403825 24.80859375 110.02734375 C26.29180566 112.48315364 26.90742122 114.11683229 27 117 C25.3046875 119.46484375 25.3046875 119.46484375 22.875 121.9375 C19.03427453 125.90652036 19.03427453 125.90652036 15.5625 130.1875 C10.98490032 135.21169477 4.77480368 140.39668546 -2.1640625 141.2734375 C-2.97617187 141.30695313 -3.78828125 141.34046875 -4.625 141.375 C-5.42164063 141.42398438 -6.21828125 141.47296875 -7.0390625 141.5234375 C-16.03300282 139.93347971 -22.43297861 133.24269259 -28.625 127 C-29.45128906 126.2059375 -30.27757812 125.411875 -31.12890625 124.59375 C-31.90363281 123.8203125 -32.67835938 123.046875 -33.4765625 122.25 C-34.529646 121.20585938 -34.529646 121.20585938 -35.60400391 120.140625 C-37 118 -37 118 -36.79248047 115.40649414 C-35.88043387 112.63691826 -34.75854916 110.0680141 -33.5 107.4375 C-30.85253476 101.88859756 -29.84875957 97.85887802 -29.8125 91.6875 C-29.79832031 90.59824219 -29.78414063 89.50898438 -29.76953125 88.38671875 C-30.0370166 84.45604419 -30.33165119 81.59831529 -32 78 C-34.66897632 76.36855209 -37.48905325 75.65750764 -40.5 74.875 C-42.14985638 74.38101645 -43.79831682 73.88234544 -45.4453125 73.37890625 C-46.23711914 73.14316895 -47.02892578 72.90743164 -47.84472656 72.66455078 C-61.55942336 68.43580082 -73.79303382 56.82919284 -80.4609375 44.2421875 C-84.1176787 36.48482322 -86.44576047 29.61803569 -86 21 C-85 20 -85 20 -81.45703125 19.80859375 C-76.96457206 19.87161422 -72.97242326 20.7672185 -68.6875 22.0625 C-67.9462085 22.28655518 -67.20491699 22.51061035 -66.44116211 22.74145508 C-49.06476922 28.3081721 -39.31698318 40.63687559 -30.54296875 55.828125 C-26.75809314 62.38320998 -26.75809314 62.38320998 -21 67 C-20.31379969 65.67661368 -19.65213539 64.34050052 -19 63 C-18.66871094 62.34386719 -18.33742188 61.68773437 -17.99609375 61.01171875 C-16.52725847 56.57065208 -16.28996387 52.14790427 -15.9375 47.5 C-15.85153564 46.46641357 -15.76557129 45.43282715 -15.67700195 44.36791992 C-15.20628707 38.29096829 -14.93293003 32.2389438 -14.828125 26.14453125 C-14.80242432 24.84128906 -14.77672363 23.53804688 -14.75024414 22.1953125 C-14.70898706 19.6421894 -14.68931938 17.08860985 -14.69311523 14.53515625 C-14.53786042 4.77090514 -14.53786042 4.77090514 -11.58203125 1.73046875 C-7.21207938 -1.19825845 -5.211922 -1.25805014 0 0 Z " fill="#131618" transform="translate(485,419)"/>
<path d="M0 0 C14.4910073 0.30722984 26.88729673 7.38291024 36.9375 17.4296875 C46.04245761 27.22862054 50.72215101 38.8584392 50.5 52.1875 C35.18348426 53.06412093 23.08158849 48.24423985 11.5 38.1875 C2.53346574 27.71630759 -5.57678883 15.54468443 -4.5 1.1875 C-3.5 0.1875 -3.5 0.1875 0 0 Z " fill="#121417" transform="translate(396.5,360.8125)"/>
<path d="M0 0 C1.17175781 0.01353516 1.17175781 0.01353516 2.3671875 0.02734375 C2.94726562 0.03894531 3.52734375 0.05054688 4.125 0.0625 C5.01104612 13.05784314 -0.40916117 25.00328637 -8.625 34.8125 C-16.66912208 43.36033371 -28.77886208 51.76793595 -40.890625 52.16015625 C-41.95796875 52.14855469 -43.0253125 52.13695312 -44.125 52.125 C-45.20265625 52.11597656 -46.2803125 52.10695313 -47.390625 52.09765625 C-48.21046875 52.08605469 -49.0303125 52.07445312 -49.875 52.0625 C-51.04919921 39.04193538 -46.36692345 28.83762204 -38.30859375 18.78125 C-28.73114533 8.08156445 -14.67580384 -0.22236066 0 0 Z " fill="#121315" transform="translate(563.875,360.9375)"/>
<path d="M0 0 C7.61852012 3.29316676 10.83598447 11.27245673 14.01953125 18.484375 C17.54920122 27.54058003 17.32982539 39.91865802 14 49 C11.05940882 55.66297095 8.02043562 61.68424464 3 67 C-2.09075291 66.11322369 -4.11969956 63.06499985 -7 59 C-13.97703254 47.74117215 -15.65099555 35.00572886 -12.9375 22.125 C-10.6536563 13.70740464 -6.40175431 5.96559083 0 0 Z " fill="#111416" transform="translate(479,319)"/>
<path d="M0 0 C4.74596865 3.63560734 10.15134978 7.97148352 11.796875 13.84375 C11.89742188 14.91109375 11.89742188 14.91109375 12 16 C2.72792545 20.95948174 -8.15493383 21.62977766 -18.36328125 19.19921875 C-26.89365188 15.9795847 -35.19945389 9.90392945 -40 2 C-39 -1 -39 -1 -37.0234375 -2.16796875 C-24.65564337 -6.92902224 -11.58410416 -6.83052606 0 0 Z " fill="#101113" transform="translate(407,502)"/>
<path d="M0 0 C1.3337337 0.7989087 2.65663528 1.61881542 3.9375 2.5 C3.9375 6.74694293 3.36490043 7.85673997 0.609375 10.921875 C-8.27399602 19.30711307 -18.20033401 23.02707704 -30.2878418 22.84301758 C-35.89922698 22.64090834 -40.99291186 22.03479407 -46.0625 19.5 C-46.38820182 16.34406171 -46.25508309 14.81689598 -44.5859375 12.0703125 C-33.23922178 -0.84431303 -16.43255467 -8.08844275 0 0 Z " fill="#0F1012" transform="translate(588.0625,499.5)"/>
<path d="M0 0 C4.95997411 1.75443712 8.03782098 4.46827117 10.5625 9.0625 C11.69463236 11.43481055 12.06850364 12.56973554 11.65234375 15.18359375 C11 17 11 17 10 18 C4.40301832 18.87730467 -0.0298677 18.46369559 -4.875 15.4375 C-8.91261562 12.41464795 -11.02778522 9.63041732 -13 5 C-13 3.68 -13 2.36 -13 1 C-9.00809884 -0.99595058 -4.33969797 -0.50366265 0 0 Z " fill="#0F1011" transform="translate(363,428)"/>
<path d="M0 0 C0.96164062 -0.00515625 1.92328125 -0.0103125 2.9140625 -0.015625 C5.375 0.25 5.375 0.25 7.375 2.25 C7.27282328 6.74577553 5.93289257 9.55306503 2.87890625 12.859375 C-2.43765076 17.77546408 -6.52729859 18.69087058 -13.5859375 18.48828125 C-15.625 18.25 -15.625 18.25 -16.625 17.25 C-17.21717559 13.62292449 -17.25274117 11.20885739 -15.203125 8.078125 C-10.54343501 2.6219068 -7.36405115 -0.03969839 0 0 Z " fill="#0F0F10" transform="translate(602.625,427.75)"/>
<path d="M0 0 C0.66 0.66 1.32 1.32 2 2 C-0.04698414 4.04698414 -4.30411241 3.70045693 -7 4 C-7.33 5.32 -7.66 6.64 -8 8 C-7.01 7.67 -6.02 7.34 -5 7 C-5 7.99 -5 8.98 -5 10 C-4.51789062 9.4946875 -4.03578125 8.989375 -3.5390625 8.46875 C-2.90742187 7.8190625 -2.27578125 7.169375 -1.625 6.5 C-0.68527344 5.52546875 -0.68527344 5.52546875 0.2734375 4.53125 C2 3 2 3 4 3 C4 2.34 4 1.68 4 1 C4.99 0.67 5.98 0.34 7 0 C6.81549 11.45639394 6.81549 11.45639394 4.25 16.3125 C-0.95338921 19.01425978 -6.25570997 18.37846713 -12 18 C-12 18.66 -12 19.32 -12 20 C-12.99 20 -13.98 20 -15 20 C-15 19.34 -15 18.68 -15 18 C-14.34 18 -13.68 18 -13 18 C-13.391875 17.360625 -13.78375 16.72125 -14.1875 16.0625 C-15.39839559 11.49835507 -14.06857987 8.15265472 -12 4 C-8.33976168 -0.16860476 -5.43951122 -0.61579372 0 0 Z " fill="#1D1F22" transform="translate(897,926)"/>
<path d="M0 0 C0 0.99 0 1.98 0 3 C0.99 3.33 1.98 3.66 3 4 C3 4.66 3 5.32 3 6 C2.01 6 1.02 6 0 6 C0 8.31 0 10.62 0 13 C-0.99 13 -1.98 13 -3 13 C-3.33 12.34 -3.66 11.68 -4 11 C-4.66 11.66 -5.32 12.32 -6 13 C-12.05240175 13.55021834 -12.05240175 13.55021834 -14.9375 11.875 C-16.50422245 9.11019567 -16.38976435 7.11811483 -16 4 C-14.9375 2.125 -14.9375 2.125 -13 1 C-9.69420616 0.75957863 -6.89520708 0.75805214 -3.6875 1.625 C-2.8521875 1.810625 -2.8521875 1.810625 -2 2 C-1.34 1.34 -0.68 0.68 0 0 Z " fill="#212226" transform="translate(925,928)"/>
<path d="M0 0 C1.32 0.33 2.64 0.66 4 1 C4 4.58045317 3.19632485 5.29683095 1 8 C0.01 9.485 0.01 9.485 -1 11 C-1.99 12.485 -1.99 12.485 -3 14 C-3.09708337 16.56637769 -2.93368262 19.06256772 -2.77734375 21.625 C-3 24 -3 24 -4.50390625 25.8125 C-4.99761719 26.204375 -5.49132812 26.59625 -6 27 C-10.93491952 21.82435269 -10.93491952 21.82435269 -11.1875 18.625 C-9.73002917 15.40322236 -7.75265384 12.90245365 -5.56640625 10.13671875 C-3.23151503 6.95171751 -1.660507 3.57647661 0 0 Z M2 1 C3 3 3 3 3 3 Z " fill="#141517" transform="translate(643,453)"/>
<path d="M0 0 C-5.09090909 5.27272727 -5.09090909 5.27272727 -8 7 C-11.00388632 6.73495121 -11.83304275 6.16695725 -14 4 C-17.35744112 3.75622117 -17.35744112 3.75622117 -21.125 3.875 C-22.40632813 3.89304687 -23.68765625 3.91109375 -25.0078125 3.9296875 C-25.99523437 3.95289063 -26.98265625 3.97609375 -28 4 C-28 4.66 -28 5.32 -28 6 C-30.31 6.33 -32.62 6.66 -35 7 C-34.34 6.67 -33.68 6.34 -33 6 C-33 5.34 -33 4.68 -33 4 C-34.65 3.67 -36.3 3.34 -38 3 C-38 2.34 -38 1.68 -38 1 C-37.24380371 1.00523682 -36.48760742 1.01047363 -35.70849609 1.01586914 C-32.26400593 1.03672724 -28.8195291 1.04968826 -25.375 1.0625 C-24.18519531 1.07087891 -22.99539063 1.07925781 -21.76953125 1.08789062 C-20.61582031 1.09111328 -19.46210938 1.09433594 -18.2734375 1.09765625 C-17.21560059 1.10289307 -16.15776367 1.10812988 -15.06787109 1.11352539 C-9.96403796 0.92466001 -5.14125329 -0.12241079 0 0 Z " fill="#0C0E0F" transform="translate(398,552)"/>
<path d="M0 0 C3.38419999 0.25068148 4.3123671 1.30542561 6.8125 3.75 C9 7 9 7 8.82421875 9.40234375 C7.91556856 12.26609908 6.7036281 14.34305831 5 16.8125 C4.46375 17.60269531 3.9275 18.39289063 3.375 19.20703125 C2.92125 19.79871094 2.4675 20.39039063 2 21 C1.67 21 1.34 21 1 21 C1 16 1 11 1 6 C0.68578929 3.99690671 0.3548954 1.99628664 0 0 Z " fill="#161719" transform="translate(319,463)"/>
<path d="M0 0 C0.99 0.495 0.99 0.495 2 1 C2 5.95 2 10.9 2 16 C3.32 16 4.64 16 6 16 C5.62875 16.721875 5.2575 17.44375 4.875 18.1875 C3.7708589 21.73652497 4.52473704 22.66124698 6 26 C6.46209946 28.6632829 6.7262267 31.30789588 7 34 C6.01 34.495 6.01 34.495 5 35 C1.76810878 32.84540586 1.57378709 32.67731725 0.8203125 29.16015625 C-0.31998118 23.26863892 -0.21869304 17.41583698 -0.125 11.4375 C-0.11597656 10.33341797 -0.10695313 9.22933594 -0.09765625 8.09179688 C-0.07430128 5.3942983 -0.04155054 2.69726923 0 0 Z " fill="#101113" transform="translate(504,608)"/>
<path d="M0 0 C1.98314861 3.96629722 0.86286621 8.78289332 0 13 C-2 16.1875 -2 16.1875 -5 18 C-8.05025267 18.37808827 -10.94594328 18.29941733 -14 18 C-14 17.34 -14 16.68 -14 16 C-11.03 15.34 -8.06 14.68 -5 14 C-4.67 12.02 -4.34 10.04 -4 8 C-4.99 8 -5.98 8 -7 8 C-7 8.66 -7 9.32 -7 10 C-8.32 10.33 -9.64 10.66 -11 11 C-10.07038578 9.84775972 -9.1309875 8.70340824 -8.1875 7.5625 C-7.40439453 6.60537109 -7.40439453 6.60537109 -6.60546875 5.62890625 C-5 4 -5 4 -2 3 C-2 2.34 -2 1.68 -2 1 C-1.34 0.67 -0.68 0.34 0 0 Z " fill="#616264" transform="translate(903,926)"/>
<path d="M0 0 C1.20628008 2.33214148 2.1654738 4.49642139 3 7 C4.65 6.67 6.3 6.34 8 6 C8.66666667 8.66666667 9.33333333 11.33333333 10 14 C10.20753906 14.68578125 10.41507813 15.3715625 10.62890625 16.078125 C11 18 11 18 10 21 C9.77441406 20.443125 9.54882812 19.88625 9.31640625 19.3125 C7.05752083 15.34436894 3.51634738 12.54479754 0.21484375 9.4375 C-1.86871689 7.14448088 -2.82709354 6.05911436 -3 3 C-1.5625 1.25 -1.5625 1.25 0 0 Z " fill="#15181A" transform="translate(517,651)"/>
<path d="M0 0 C0.66 0 1.32 0 2 0 C2 8.25 2 16.5 2 25 C-9.625 30.125 -9.625 30.125 -13 29 C-13.33 28.34 -13.66 27.68 -14 27 C-13.195625 26.87625 -12.39125 26.7525 -11.5625 26.625 C-10.716875 26.41875 -9.87125 26.2125 -9 26 C-8.67 25.34 -8.34 24.68 -8 24 C-7.34 24.33 -6.68 24.66 -6 25 C-5.67 24.67 -5.34 24.34 -5 24 C-2.9375 24.4375 -2.9375 24.4375 -1 25 C0.10941367 19.67132017 0.11548069 14.53718145 0.0625 9.125 C0.05798828 8.24585938 0.05347656 7.36671875 0.04882812 6.4609375 C0.03712337 4.30726197 0.01919069 2.15362183 0 0 Z " fill="#1B1B1B" transform="translate(352,361)"/>
<path d="M0 0 C0.36795695 3.2828659 0.3231932 4.58663012 -1.75 7.23828125 C-2.4925 7.92277344 -3.235 8.60726562 -4 9.3125 C-4.7425 10.00988281 -5.485 10.70726562 -6.25 11.42578125 C-7.11625 12.20501953 -7.11625 12.20501953 -8 13 C-9.32 12.34 -10.64 11.68 -12 11 C-11.8125 8.125 -11.8125 8.125 -11 5 C-8.6875 3.8125 -8.6875 3.8125 -6 3 C-1.96153846 0 -1.96153846 0 0 0 Z " fill="#121317" transform="translate(444,654)"/>
<path d="M0 0 C0.66 1.32 1.32 2.64 2 4 C-0.64 3.67 -3.28 3.34 -6 3 C-6 4.98 -6 6.96 -6 9 C-3.03 9.495 -3.03 9.495 0 10 C0 9.01 0 8.02 0 7 C-1.32 6.67 -2.64 6.34 -4 6 C-2.02 6 -0.04 6 2 6 C1.125 10.875 1.125 10.875 0 12 C-6.2080292 12.45985401 -6.2080292 12.45985401 -8.9375 10.875 C-10.50422245 8.11019567 -10.38976435 6.11811483 -10 3 C-7.7109263 -1.03954182 -4.21983723 -0.23885871 0 0 Z " fill="#585A5B" transform="translate(919,929)"/>
<path d="M0 0 C2.4375 1 2.4375 1 4 2 C4 2.99 4 3.98 4 5 C3.443125 4.814375 2.88625 4.62875 2.3125 4.4375 C-0.49653549 3.90606085 -2.2651243 4.17953729 -5 5 C-6.35622245 5.96873032 -7.69417053 6.96434215 -9 8 C-9.66 8 -10.32 8 -11 8 C-11 7.01 -11 6.02 -11 5 C-11.66 4.67 -12.32 4.34 -13 4 C-8.50292642 0.49008892 -5.70815227 -0.63423914 0 0 Z " fill="#121414" transform="translate(552,547)"/>
<path d="M0 0 C4.75 0.875 4.75 0.875 7 2 C6.67 2.66 6.34 3.32 6 4 C6 4.33 6 4.66 6 5 C6 5.99 6 6.98 6 8 C8.97 8 11.94 8 15 8 C8.73299748 12.17800168 8.73299748 12.17800168 4.984375 11.79296875 C2.36711739 10.74709612 1.88086064 9.64073325 0.6875 7.125 C0.34074219 6.42632812 -0.00601563 5.72765625 -0.36328125 5.0078125 C-1 3 -1 3 0 0 Z " fill="#121213" transform="translate(529,312)"/>
<path d="M0 0 C2.5 -0.3125 2.5 -0.3125 5 0 C7 2 7 2 7.25 4.5 C7 7 7 7 5 9 C1.875 9.125 1.875 9.125 -1 9 C-1.625 6.1875 -1.625 6.1875 -2 3 C-1.34 2.01 -0.68 1.02 0 0 Z " fill="#5E5E60" transform="translate(930,932)"/>
<path d="M0 0 C2 0.6875 2 0.6875 4 2.6875 C3.01 3.1825 3.01 3.1825 2 3.6875 C2.66 4.0175 3.32 4.3475 4 4.6875 C3.67 5.6775 3.34 6.6675 3 7.6875 C3.99 8.6775 4.98 9.6675 6 10.6875 C4.68 11.6775 3.36 12.6675 2 13.6875 C0.98868775 12.27888651 -0.00866767 10.86024547 -1 9.4375 C-1.8353125 8.25414062 -1.8353125 8.25414062 -2.6875 7.046875 C-4 4.6875 -4 4.6875 -4 0.6875 C-2 -0.3125 -2 -0.3125 0 0 Z " fill="#171819" transform="translate(354,428.3125)"/>
<path d="M0 0 C0.99 0 1.98 0 3 0 C3.2475 0.639375 3.495 1.27875 3.75 1.9375 C4.78386787 4.14352189 4.78386787 4.14352189 6.80761719 4.60913086 C8.99963904 4.99993565 11.10487516 5.20524376 13.328125 5.31640625 C14.12734375 5.35830078 14.9265625 5.40019531 15.75 5.44335938 C16.9875 5.50233398 16.9875 5.50233398 18.25 5.5625 C19.09046875 5.60568359 19.9309375 5.64886719 20.796875 5.69335938 C22.86440671 5.79908543 24.93218281 5.90001295 27 6 C26.67 6.66 26.34 7.32 26 8 C6.8372093 8.41860465 6.8372093 8.41860465 0 5 C0 3.35 0 1.7 0 0 Z " fill="#191A1A" transform="translate(542,514)"/>
<path d="M0 0 C0.66 0.33 1.32 0.66 2 1 C1.39644592 4.85025879 0.23227397 7.86101159 -1.5625 11.3125 C-2.01753906 12.19550781 -2.47257812 13.07851563 -2.94140625 13.98828125 C-3.29074219 14.65214844 -3.64007813 15.31601562 -4 16 C-4.33 15.01 -4.66 14.02 -5 13 C-5.99 12.67 -6.98 12.34 -8 12 C-8 9.36 -8 6.72 -8 4 C-2.25 3.875 -2.25 3.875 0 5 C0 3.35 0 1.7 0 0 Z M-5 5 C-4 8 -4 8 -4 8 Z " fill="#151618" transform="translate(320,404)"/>
<path d="M0 0 C0.66 0.66 1.32 1.32 2 2 C0.11732015 3.88267985 -2.57062042 3.40620537 -5.08984375 3.62109375 C-7.2328948 3.86222227 -7.2328948 3.86222227 -9 6 C-9.09987027 8.32741155 -8.93198502 10.5828592 -8.77734375 12.90625 C-8.85082031 13.5971875 -8.92429687 14.288125 -9 15 C-9.99 15.66 -10.98 16.32 -12 17 C-12.13536022 14.91846065 -12.23215465 12.83438794 -12.3125 10.75 C-12.37050781 9.58984375 -12.42851563 8.4296875 -12.48828125 7.234375 C-12 4 -12 4 -9.7109375 1.6015625 C-6.24131878 -0.44821225 -3.96557631 -0.44893317 0 0 Z " fill="#575959" transform="translate(897,926)"/>
<path d="M0 0 C0.8353125 0.37125 0.8353125 0.37125 1.6875 0.75 C1.6875 1.74 1.6875 2.73 1.6875 3.75 C2.3475 3.42 3.0075 3.09 3.6875 2.75 C3.3575 4.07 3.0275 5.39 2.6875 6.75 C-0.96706815 7.50241109 -4.62983897 8.15049704 -8.3125 8.75 C-8.0198985 5.23878203 -7.5025372 3.94517334 -5 1.375 C-2.3125 -0.25 -2.3125 -0.25 0 0 Z " fill="#0F1011" transform="translate(532.3125,447.25)"/>
<path d="M0 0 C2 0.6875 2 0.6875 4 2.6875 C4.60246406 4.69571355 5.0000854 6.68796968 5.375 8.75 C6.11919817 11.05701432 7.190755 12.11424348 9 13.6875 C5.48179259 13.08663761 3.49817544 11.75534372 0.8125 9.4375 C0.11769531 8.85484375 -0.57710937 8.2721875 -1.29296875 7.671875 C-3.29176291 5.34833397 -3.65255491 3.69523361 -4 0.6875 C-2 -0.3125 -2 -0.3125 0 0 Z " fill="#141519" transform="translate(514,288.3125)"/>
<path d="M0 0 C0 0.33 0 0.66 0 1 C-2.31 1.33 -4.62 1.66 -7 2 C-6.67 2.99 -6.34 3.98 -6 5 C-8.31 5.33 -10.62 5.66 -13 6 C-13 5.34 -13 4.68 -13 4 C-13.886875 4.33 -14.77375 4.66 -15.6875 5 C-18.70923347 5.91222143 -20.88373706 6.18330958 -24 6 C-16.76393533 0.10394731 -8.97245874 -0.17944917 0 0 Z " fill="#141516" transform="translate(568,361)"/>
<path d="M0 0 C0.66 0.66 1.32 1.32 2 2 C2.66 2.33 3.32 2.66 4 3 C1.03 5.97 -1.94 8.94 -5 12 C-5.33 11.01 -5.66 10.02 -6 9 C-6.66 9.66 -7.32 10.32 -8 11 C-8.66 11 -9.32 11 -10 11 C-9.67 9.35 -9.34 7.7 -9 6 C-6.92446352 5.4465236 -5.15634036 5 -3 5 C-2.67 4.01 -2.34 3.02 -2 2 C-1.34 1.34 -0.68 0.68 0 0 Z " fill="#111214" transform="translate(443,293)"/>
<path d="M0 0 C2.64 0 5.28 0 8 0 C7.67 2.97 7.34 5.94 7 9 C6.34 9 5.68 9 5 9 C4.67 10.32 4.34 11.64 4 13 C3.51171875 11.01432292 3.0234375 9.02864583 2.53515625 7.04296875 C1.88865417 4.57493526 1.14232527 2.28465053 0 0 Z " fill="#090B0A" transform="translate(560,362)"/>
<path d="M0 0 C0.66 0 1.32 0 2 0 C2 1.98 2 3.96 2 6 C2.66 6 3.32 6 4 6 C4.33 5.01 4.66 4.02 5 3 C5.99 3.33 6.98 3.66 8 4 C7.67 4.66 7.34 5.32 7 6 C6.34 6 5.68 6 5 6 C5.66 7.98 6.32 9.96 7 12 C5.68 11.34 4.36 10.68 3 10 C2.67 10.66 2.34 11.32 2 12 C1.34 12 0.68 12 0 12 C0 8.04 0 4.08 0 0 Z " fill="#545456" transform="translate(939,929)"/>
<path d="M0 0 C5.91969002 1.75990784 11.41634992 4.39694605 17 7 C17 7.33 17 7.66 17 8 C10.80112515 8.37952295 6.5522888 7.8352113 1 5 C1 4.01 1 3.02 1 2 C0.67 1.34 0.34 0.68 0 0 Z " fill="#131617" transform="translate(338,544)"/>
<path d="M0 0 C0.99 0 1.98 0 3 0 C3.9765625 1.72526042 4.953125 3.45052083 5.9296875 5.17578125 C6.89428581 6.81982289 7.94267059 8.41400588 9 10 C9 10.99 9 11.98 9 13 C5.15211415 11.4323428 2.62367103 9.20670904 0 6 C-0.3125 2.6875 -0.3125 2.6875 0 0 Z " fill="#0C0C0F" transform="translate(412,468)"/>
<path d="M0 0 C3.02419525 0.58803797 6.01758453 1.22678118 9 2 C8.67 3.65 8.34 5.3 8 7 C2.71862571 6.48474397 -0.57221156 4.74522883 -5 2 C-4.01 1.67 -3.02 1.34 -2 1 C-1.34 1.33 -0.68 1.66 0 2 C0 1.34 0 0.68 0 0 Z " fill="#161717" transform="translate(615,385)"/>
<path d="M0 0 C8.19256018 0.35010941 8.19256018 0.35010941 11.5625 3.0625 C12.036875 3.701875 12.51125 4.34125 13 5 C12.67 5.66 12.34 6.32 12 7 C6.75900345 6.58894145 3.75960806 5.75960806 0 2 C0 1.34 0 0.68 0 0 Z " fill="#1A1D1F" transform="translate(467,553)"/>
<path d="M0 0 C1.32 0 2.64 0 4 0 C2.33248852 3.94139078 -0.22710649 6.7892812 -3 10 C-4.9375 9.1875 -4.9375 9.1875 -7 8 C-7.33 7.01 -7.66 6.02 -8 5 C-6.68 5.33 -5.36 5.66 -4 6 C-3.71125 5.38125 -3.4225 4.7625 -3.125 4.125 C-2 2 -2 2 0 0 Z " fill="#EAEBEC" transform="translate(501,476)"/>
<path d="M0 0 C2.76276177 0.52268466 5.3260876 1.10869587 8 2 C10.72897438 2.38503552 13.45128163 2.7398891 16.1875 3.0625 C16.93708984 3.15337891 17.68667969 3.24425781 18.45898438 3.33789062 C20.30565535 3.5613731 22.15278554 3.78105513 24 4 C24 4.33 24 4.66 24 5 C7.1070615 5.55353075 7.1070615 5.55353075 0 2 C0 1.34 0 0.68 0 0 Z " fill="#191B1B" transform="translate(384,517)"/>
<path d="M0 0 C1.79133978 -0.05391993 3.58313899 -0.09275571 5.375 -0.125 C6.37273438 -0.14820313 7.37046875 -0.17140625 8.3984375 -0.1953125 C11 0 11 0 13 2 C12.625 5.125 12.625 5.125 12 8 C11.01 8 10.02 8 9 8 C7.66018514 8.3062434 6.32488113 8.63451555 5 9 C5 8.34 5 7.68 5 7 C5.66 7 6.32 7 7 7 C7.66 5.35 8.32 3.7 9 2 C6.03 1.67 3.06 1.34 0 1 C0 0.67 0 0.34 0 0 Z " fill="#1C1E1E" transform="translate(597,428)"/>
<path d="M0 0 C1.65 0 3.3 0 5 0 C4.85892253 1.45880109 4.71197585 2.91703551 4.5625 4.375 C4.48128906 5.18710937 4.40007812 5.99921875 4.31640625 6.8359375 C4 9 4 9 3 11 C1.68 10.67 0.36 10.34 -1 10 C-0.835 9.46375 -0.67 8.9275 -0.5 8.375 C0.09660212 5.54113991 0.0656368 2.8880194 0 0 Z " fill="#111213" transform="translate(426,312)"/>
<path d="M0 0 C0.66 0 1.32 0 2 0 C1.625 2.9375 1.625 2.9375 1 6 C-0.33333333 6.66666667 -1.66666667 7.33333333 -3 8 C-3.66 7.67 -4.32 7.34 -5 7 C-5 7.66 -5 8.32 -5 9 C-6.98 9.66 -8.96 10.32 -11 11 C-9.79447401 7.38342204 -8.51483415 6.61704438 -5.5 4.375 C-4.6853125 3.76398437 -3.870625 3.15296875 -3.03125 2.5234375 C-2.3609375 2.02070312 -1.690625 1.51796875 -1 1 C-0.67 0.67 -0.34 0.34 0 0 Z " fill="#0D0E10" transform="translate(631,535)"/>
<path d="M0 0 C0.66 0.33 1.32 0.66 2 1 C2.625 4.0625 2.625 4.0625 3 7 C2.34 7 1.68 7 1 7 C0.67 8.32 0.34 9.64 0 11 C0.66 11 1.32 11 2 11 C1.625 13.9375 1.625 13.9375 1 17 C0.34 17.33 -0.32 17.66 -1 18 C-1 3 -1 3 0 0 Z " fill="#101112" transform="translate(321,466)"/>
<path d="M0 0 C0.33 0 0.66 0 1 0 C1.33 3.3 1.66 6.6 2 10 C2.66 9.01 3.32 8.02 4 7 C4.66 7 5.32 7 6 7 C6 7.66 6 8.32 6 9 C6.99 9.33 7.98 9.66 9 10 C6.36 10.66 3.72 11.32 1 12 C1 12.66 1 13.32 1 14 C0.01 14 -0.98 14 -2 14 C-2 13.34 -2 12.68 -2 12 C-1.34 12 -0.68 12 0 12 C-0.37125 11.319375 -0.7425 10.63875 -1.125 9.9375 C-2.27878533 6.06407781 -1.32141227 3.74400143 0 0 Z " fill="#2A2B2D" transform="translate(884,932)"/>
<path d="M0 0 C0.66 0.33 1.32 0.66 2 1 C1.125 4.875 1.125 4.875 0 6 C-1.68608966 6.07205511 -3.37500659 6.08386068 -5.0625 6.0625 C-5.98160156 6.05347656 -6.90070313 6.04445313 -7.84765625 6.03515625 C-8.55792969 6.02355469 -9.26820313 6.01195312 -10 6 C-10 5.34 -10 4.68 -10 4 C-8.906875 3.896875 -7.81375 3.79375 -6.6875 3.6875 C-3.14440371 3.02692273 -2.06756277 2.7972908 0 0 Z " fill="#1F2120" transform="translate(373,440)"/>
<path d="M0 0 C1.65 0 3.3 0 5 0 C5 0.99 5 1.98 5 3 C5.185625 3.680625 5.37125 4.36125 5.5625 5.0625 C6 7 6 7 5 9 C3.0625 8.625 3.0625 8.625 1 8 C-0.35439668 5.29120665 -0.06501451 2.99066732 0 0 Z " fill="#121315" transform="translate(641,408)"/>
<path d="M0 0 C0.66 0.99 1.32 1.98 2 3 C2.66 2.67 3.32 2.34 4 2 C3.67 4.64 3.34 7.28 3 10 C2.34 10 1.68 10 1 10 C0.67 9.34 0.34 8.68 0 8 C-0.66 8.66 -1.32 9.32 -2 10 C-2.25 3.375 -2.25 3.375 0 0 Z " fill="#121315" transform="translate(508,585)"/>
<path d="M0 0 C0.66 0 1.32 0 2 0 C2 1.65 2 3.3 2 5 C0.68 4.67 -0.64 4.34 -2 4 C-2.33 5.65 -2.66 7.3 -3 9 C-3.66 9 -4.32 9 -5 9 C-5.33 10.32 -5.66 11.64 -6 13 C-6.33 13 -6.66 13 -7 13 C-6.74126898 8.60157266 -6.43893111 6.50477078 -3.5 3.125 C-2.2625 2.073125 -2.2625 2.073125 -1 1 C-0.67 0.67 -0.34 0.34 0 0 Z " fill="#0C0D0E" transform="translate(517,460)"/>
<path d="M0 0 C0.99 0.33 1.98 0.66 3 1 C3.33 1.99 3.66 2.98 4 4 C3.38125 4.185625 2.7625 4.37125 2.125 4.5625 C-1.05602866 6.71437233 -1.19451947 9.37533763 -2 13 C-2.33 13 -2.66 13 -3 13 C-3.4726477 4.80743982 -3.4726477 4.80743982 -1.5 1.4375 C-0.7575 0.7259375 -0.7575 0.7259375 0 0 Z " fill="#1C1C1C" transform="translate(474,420)"/>
<path d="M0 0 C0.66 0.66 1.32 1.32 2 2 C1.54625 2.4125 1.0925 2.825 0.625 3.25 C-1.05950374 5.06408095 -1.99265971 6.75285627 -3 9 C-2.34 9.33 -1.68 9.66 -1 10 C-5.75 12.875 -5.75 12.875 -8 14 C-6.3833652 7.96719209 -4.83290538 4.049191 0 0 Z " fill="#0F1112" transform="translate(520,566)"/>
<path d="M0 0 C0.99 0.66 1.98 1.32 3 2 C1.06767179 2.86580287 -0.87107194 3.71729941 -2.8125 4.5625 C-3.89144531 5.03816406 -4.97039062 5.51382812 -6.08203125 6.00390625 C-9 7 -9 7 -12 6 C-12.33 5.34 -12.66 4.68 -13 4 C-12.195625 3.87625 -11.39125 3.7525 -10.5625 3.625 C-9.716875 3.41875 -8.87125 3.2125 -8 3 C-7.67 2.34 -7.34 1.68 -7 1 C-6.34 1.33 -5.68 1.66 -5 2 C-4.67 1.67 -4.34 1.34 -4 1 C-1.9375 1.4375 -1.9375 1.4375 0 2 C0 1.34 0 0.68 0 0 Z " fill="#0E0F0F" transform="translate(351,384)"/>
<path d="M0 0 C0 0.99 0 1.98 0 3 C-6.28571429 5.42857143 -6.28571429 5.42857143 -10 4 C-9.67 3.01 -9.34 2.02 -9 1 C-5.8035914 -0.06546953 -3.34252724 -0.07427838 0 0 Z " fill="#141414" transform="translate(414,547)"/>
<path d="M0 0 C0.33 0.99 0.66 1.98 1 3 C0.4946875 3.33773438 -0.010625 3.67546875 -0.53125 4.0234375 C-1.50578125 4.69246094 -1.50578125 4.69246094 -2.5 5.375 C-3.1496875 5.81585938 -3.799375 6.25671875 -4.46875 6.7109375 C-4.9740625 7.13632812 -5.479375 7.56171875 -6 8 C-6 8.66 -6 9.32 -6 10 C-7.98 10.33 -9.96 10.66 -12 11 C-8.38748484 6.43951988 -5.01202555 2.98334854 0 0 Z " fill="#161817" transform="translate(556,501)"/>
<path d="M0 0 C0.66 0.33 1.32 0.66 2 1 C1.67 1.66 1.34 2.32 1 3 C3.31 3 5.62 3 8 3 C7.34 3.66 6.68 4.32 6 5 C6 5.99 6 6.98 6 8 C4.00045254 8.04254356 1.99958364 8.04080783 0 8 C-1 7 -1 7 -1.125 4 C-1 1 -1 1 0 0 Z " fill="#28282C" transform="translate(913,931)"/>
<path d="M0 0 C-0.61538462 6.52307692 -0.61538462 6.52307692 -2.5625 8.9375 C-3.036875 9.288125 -3.51125 9.63875 -4 10 C-4 9.34 -4 8.68 -4 8 C-4.66 8 -5.32 8 -6 8 C-5.74438677 5.6568787 -5.40729228 3.32156597 -5 1 C-3 0 -3 0 0 0 Z " fill="#0F0F11" transform="translate(559,452)"/>
<path d="M0 0 C0.99 0.66 1.98 1.32 3 2 C3.99 1.67 4.98 1.34 6 1 C5.6875 2.875 5.6875 2.875 5 5 C2 7 2 7 -0.1875 6.625 C-0.785625 6.41875 -1.38375 6.2125 -2 6 C-1.67 5.34 -1.34 4.68 -1 4 C-1.66 4 -2.32 4 -3 4 C-2.67 3.01 -2.34 2.02 -2 1 C-1.34 0.67 -0.68 0.34 0 0 Z " fill="#1E1F20" transform="translate(548,393)"/>
<path d="M0 0 C4.22448388 1.56462366 6.40096753 4.41754984 9 8 C9.8125 10.875 9.8125 10.875 10 13 C9.34 13 8.68 13 8 13 C4 7.58823529 4 7.58823529 4 5 C3.34 4.505 2.68 4.01 2 3.5 C1.34 3.005 0.68 2.51 0 2 C0 1.34 0 0.68 0 0 Z " fill="#0C0C0D" transform="translate(428,375)"/>
<path d="M0 0 C0.66 0.66 1.32 1.32 2 2 C4.57061311 2.64767793 4.57061311 2.64767793 7 3 C7 3.33 7 3.66 7 4 C4.75256955 4.53181175 2.50192898 5.05007126 0.25 5.5625 C-1.62945312 5.99755859 -1.62945312 5.99755859 -3.546875 6.44140625 C-6.59473748 6.93444283 -8.17641828 7.07666879 -11 6 C-10.45730469 5.81824219 -9.91460937 5.63648438 -9.35546875 5.44921875 C-8.28232422 5.07216797 -8.28232422 5.07216797 -7.1875 4.6875 C-6.47980469 4.44386719 -5.77210938 4.20023437 -5.04296875 3.94921875 C-2.85527627 2.93275742 -1.59103282 1.79179406 0 0 Z " fill="#0C0E0F" transform="translate(471,280)"/>
<path d="M0 0 C2.64 0 5.28 0 8 0 C8 0.66 8 1.32 8 2 C8.66 2.33 9.32 2.66 10 3 C10 3.66 10 4.32 10 5 C7.69 5.33 5.38 5.66 3 6 C3.66 5.67 4.32 5.34 5 5 C5 4.34 5 3.68 5 3 C3.35 2.67 1.7 2.34 0 2 C0 1.34 0 0.68 0 0 Z " fill="#121315" transform="translate(360,553)"/>
<path d="M0 0 C7.75 0.875 7.75 0.875 10 2 C10 2.66 10 3.32 10 4 C6.7 4 3.4 4 0 4 C0 2.68 0 1.36 0 0 Z " fill="#0A0B0C" transform="translate(392,498)"/>
<path d="M0 0 C1.65 0.33 3.3 0.66 5 1 C5.33 1.99 5.66 2.98 6 4 C5.01 4 4.02 4 3 4 C3 4.99 3 5.98 3 7 C1.02 6.34 -0.96 5.68 -3 5 C-2.34 4.67 -1.68 4.34 -1 4 C-0.34786708 1.97536745 -0.34786708 1.97536745 0 0 Z " fill="#141819" transform="translate(498,281)"/>
<path d="M0 0 C0.66 0.33 1.32 0.66 2 1 C0.515 2.485 0.515 2.485 -1 4 C-0.67 4.66 -0.34 5.32 0 6 C-0.99 6.33 -1.98 6.66 -3 7 C-3.66 7.66 -4.32 8.32 -5 9 C-6.32 8.34 -7.64 7.68 -9 7 C-6.03 4.69 -3.06 2.38 0 0 Z " fill="#E8E9EA" transform="translate(379,326)"/>
<path d="M0 0 C3.36720387 1.39332574 4.9859524 2.9789286 7 6 C5.35 5.67 3.7 5.34 2 5 C1.67 5.66 1.34 6.32 1 7 C1 5.68 1 4.36 1 3 C-0.65 3.66 -2.3 4.32 -4 5 C-2.68 3.35 -1.36 1.7 0 0 Z " fill="#222323" transform="translate(479,319)"/>
<path d="M0 0 C0.66 -0.33 1.32 -0.66 2 -1 C2 0.98 2 2.96 2 5 C-1 5 -1 5 -3.6875 2.5 C-4.450625 1.675 -5.21375 0.85 -6 0 C-3.4791665 -1.26041675 -2.64903564 -0.66225891 0 0 Z " fill="#111214" transform="translate(630,393)"/>
<path d="M0 0 C0.33 0 0.66 0 1 0 C1 1.65 1 3.3 1 5 C-1.40545638 6.20272819 -2.94996953 6.10071472 -5.625 6.0625 C-6.85089844 6.04896484 -6.85089844 6.04896484 -8.1015625 6.03515625 C-9.04128906 6.01775391 -9.04128906 6.01775391 -10 6 C-10 5.34 -10 4.68 -10 4 C-9.04287109 3.81824219 -9.04287109 3.81824219 -8.06640625 3.6328125 C-7.24011719 3.46523438 -6.41382813 3.29765625 -5.5625 3.125 C-4.73878906 2.96257813 -3.91507813 2.80015625 -3.06640625 2.6328125 C-2.38449219 2.42398438 -1.70257812 2.21515625 -1 2 C-0.67 1.34 -0.34 0.68 0 0 Z " fill="#5E5F5F" transform="translate(899,938)"/>
<path d="M0 0 C2.29013653 3.4352048 2.17842973 4.985331 2 9 C1.54625 8.34 1.0925 7.68 0.625 7 C0.08875 6.34 -0.4475 5.68 -1 5 C-1.66 5 -2.32 5 -3 5 C-3 5.66 -3 6.32 -3 7 C-4.32 7.33 -5.64 7.66 -7 8 C-6.02133662 6.85373678 -5.04205413 5.70800212 -4.0625 4.5625 C-3.51722656 3.92441406 -2.97195313 3.28632812 -2.41015625 2.62890625 C-1.63204305 1.73008851 -0.84063472 0.84063472 0 0 Z " fill="#414246" transform="translate(899,929)"/>
<path d="M0 0 C3.31234384 1.16379648 5.8898219 2.11238786 8 5 C8 6.32 8 7.64 8 9 C5.5625 8.25 5.5625 8.25 3 7 C2.3125 4.9375 2.3125 4.9375 2 3 C1.34 2.67 0.68 2.34 0 2 C0 1.34 0 0.68 0 0 Z " fill="#0D0E10" transform="translate(430,558)"/>
<path d="M0 0 C1.32 0.33 2.64 0.66 4 1 C4 4.58045317 3.19632485 5.29683095 1 8 C0.34 8.99 -0.32 9.98 -1 11 C-1 7.21293268 -0.5745952 3.73486879 0 0 Z M2 1 C3 3 3 3 3 3 Z " fill="#0D0E10" transform="translate(643,453)"/>
<path d="M0 0 C0 0.99 0 1.98 0 3 C-1.28745036 3.38922918 -2.58019597 3.76098036 -3.875 4.125 C-4.95394531 4.43824219 -4.95394531 4.43824219 -6.0546875 4.7578125 C-6.69664062 4.83773438 -7.33859375 4.91765625 -8 5 C-8.66 4.34 -9.32 3.68 -10 3 C-7.29536552 -0.8183075 -4.37912428 -0.24787496 0 0 Z " fill="#131417" transform="translate(369,440)"/>
<path d="M0 0 C0.33 0.66 0.66 1.32 1 2 C1.66 2 2.32 2 3 2 C3 3.98 3 5.96 3 8 C1.35 7.67 -0.3 7.34 -2 7 C-2.33 6.01 -2.66 5.02 -3 4 C-1.5625 1.8125 -1.5625 1.8125 0 0 Z " fill="#0F1012" transform="translate(637,527)"/>
<path d="M0 0 C2 2 2 2 2 4 C2.33 4.99 2.66 5.98 3 7 C1.125 7.625 1.125 7.625 -1 8 C-1.66 7.34 -2.32 6.68 -3 6 C-2.67 5.34 -2.34 4.68 -2 4 C-2.66 3.67 -3.32 3.34 -4 3 C-2.68 2.01 -1.36 1.02 0 0 Z " fill="#090A0B" transform="translate(547,510)"/>
<path d="M0 0 C0.625 1.875 0.625 1.875 1 4 C0.34 4.66 -0.32 5.32 -1 6 C-4 5.875 -4 5.875 -7 5 C-8.375 2.9375 -8.375 2.9375 -9 1 C-8.2575 1.391875 -7.515 1.78375 -6.75 2.1875 C-5.8425 2.455625 -4.935 2.72375 -4 3 C-1.67488528 1.73647948 -1.67488528 1.73647948 0 0 Z " fill="#08090B" transform="translate(502,482)"/>
<path d="M0 0 C0.33 0 0.66 0 1 0 C1 1.65 1 3.3 1 5 C0.34 5 -0.32 5 -1 5 C-1.33 5.99 -1.66 6.98 -2 8 C-2.99 8.495 -2.99 8.495 -4 9 C-4.33 7.02 -4.66 5.04 -5 3 C-4.34 3 -3.68 3 -3 3 C-1.97980427 2.0206121 -0.97850195 1.02104551 0 0 Z " fill="#1E1F21" transform="translate(398,368)"/>
<path d="M0 0 C1.17051429 2.34102859 1.1992246 3.89352953 1.25 6.5 C1.27578125 7.2940625 1.3015625 8.088125 1.328125 8.90625 C1.21984375 9.5971875 1.1115625 10.288125 1 11 C0.01 11.66 -0.98 12.32 -2 13 C-2.05391993 11.20866022 -2.09275571 9.41686101 -2.125 7.625 C-2.14820313 6.62726562 -2.17140625 5.62953125 -2.1953125 4.6015625 C-2 2 -2 2 0 0 Z " fill="#646665" transform="translate(887,930)"/>
<path d="M0 0 C1.32 0 2.64 0 4 0 C4 1.65 4 3.3 4 5 C2.68 5 1.36 5 0 5 C-0.5625 3.0625 -0.5625 3.0625 -1 1 C-0.67 0.67 -0.34 0.34 0 0 Z " fill="#272728" transform="translate(931,934)"/>
<path d="M0 0 C-1.32 1.65 -2.64 3.3 -4 5 C-5.32 4.67 -6.64 4.34 -8 4 C-5.97675095 -0.48005146 -4.79569304 -1.43870791 0 0 Z " fill="#0F1010" transform="translate(539,554)"/>
<path d="M0 0 C0.66 0.33 1.32 0.66 2 1 C1.39816251 3.02045442 0.72693904 5.02111039 0 7 C-0.99 7.495 -0.99 7.495 -2 8 C-2.65213292 10.02463255 -2.65213292 10.02463255 -3 12 C-4.1764485 9.64710301 -4.03475851 8.58181049 -3.75 6 C-3.68296875 5.29875 -3.6159375 4.5975 -3.546875 3.875 C-3 2 -3 2 0 0 Z " fill="#141516" transform="translate(644,512)"/>
<path d="M0 0 C4.95 0 9.9 0 15 0 C12.51770764 2.48229236 11.48185959 2.6972296 8 3 C5.26233547 2.49716366 2.68159575 1.77266318 0 1 C0 0.67 0 0.34 0 0 Z " fill="#1E1F21" transform="translate(379,497)"/>
<path d="M0 0 C0.33 0.99 0.66 1.98 1 3 C-0.4375 5.1875 -0.4375 5.1875 -2 7 C-3.65 6.67 -5.3 6.34 -7 6 C-5.1875 4 -5.1875 4 -3 2 C-2.01 2 -1.02 2 0 2 C0 1.34 0 0.68 0 0 Z " fill="#0F0F11" transform="translate(553,463)"/>
<path d="M0 0 C1.33333333 0 2.66666667 0 4 0 C4.1875 2.875 4.1875 2.875 4 6 C3.01 6.66 2.02 7.32 1 8 C0.34 7.34 -0.32 6.68 -1 6 C-0.625 2.875 -0.625 2.875 0 0 Z M-3 7 C-2.01 7.495 -2.01 7.495 -1 8 C-1.99 8.495 -1.99 8.495 -3 9 C-3 8.34 -3 7.68 -3 7 Z " fill="#0C0D0E" transform="translate(553,387)"/>
<path d="M0 0 C0.66 0.66 1.32 1.32 2 2 C1.2575 2.6496875 1.2575 2.6496875 0.5 3.3125 C-1.33218192 4.99740483 -1.33218192 4.99740483 -1 8 C-2.32 7.67 -3.64 7.34 -5 7 C-4.60196439 4.11424181 -4.20990931 3.17810487 -1.9375 1.25 C-1.298125 0.8375 -0.65875 0.425 0 0 Z " fill="#141517" transform="translate(527,559)"/>
<path d="M0 0 C0.66 0 1.32 0 2 0 C2.33 0.99 2.66 1.98 3 3 C-0.21182149 4.90608098 -2.53882603 5.22266247 -6.25 5.125 C-7.14203125 5.10695313 -8.0340625 5.08890625 -8.953125 5.0703125 C-9.96632813 5.03550781 -9.96632813 5.03550781 -11 5 C-11 4.67 -11 4.34 -11 4 C-10.28972656 3.87882813 -9.57945312 3.75765625 -8.84765625 3.6328125 C-7.92855469 3.46523438 -7.00945312 3.29765625 -6.0625 3.125 C-5.14597656 2.96257813 -4.22945313 2.80015625 -3.28515625 2.6328125 C-2.53105469 2.42398438 -1.77695312 2.21515625 -1 2 C-0.67 1.34 -0.34 0.68 0 0 Z " fill="#08090B" transform="translate(414,516)"/>
<path d="M0 0 C0.89203125 0.00902344 1.7840625 0.01804687 2.703125 0.02734375 C3.37859375 0.03894531 4.0540625 0.05054688 4.75 0.0625 C4.75 0.3925 4.75 0.7225 4.75 1.0625 C2.11 1.0625 -0.53 1.0625 -3.25 1.0625 C-3.25 1.7225 -3.25 2.3825 -3.25 3.0625 C-5.23 3.3925 -7.21 3.7225 -9.25 4.0625 C-9.25 3.0725 -9.25 2.0825 -9.25 1.0625 C-6.09493858 0.12630187 -3.28413498 -0.0432123 0 0 Z " fill="#4C4C4D" transform="translate(555.25,438.9375)"/>
<path d="M0 0 C0.78375 0.04125 1.5675 0.0825 2.375 0.125 C1.385 2.105 0.395 4.085 -0.625 6.125 C-1.285 6.125 -1.945 6.125 -2.625 6.125 C-3.285 4.805 -3.945 3.485 -4.625 2.125 C-2.625 0.125 -2.625 0.125 0 0 Z " fill="#070808" transform="translate(604.625,428.875)"/>
<path d="M0 0 C1.98 0.495 1.98 0.495 4 1 C4.625 3.375 4.625 3.375 5 6 C4.34 6.66 3.68 7.32 3 8 C0.9375 5.6875 0.9375 5.6875 -1 3 C-0.67 2.01 -0.34 1.02 0 0 Z " fill="#0E0F11" transform="translate(635,400)"/>
<path d="M0 0 C1.98 0 3.96 0 6 0 C5.67 2.31 5.34 4.62 5 7 C3.29115995 5.37660195 1.62553283 3.70680947 0 2 C0 1.34 0 0.68 0 0 Z " fill="#131416" transform="translate(594,336)"/>
<path d="M0 0 C1.32 0 2.64 0 4 0 C4 0.66 4 1.32 4 2 C3.01 2 2.02 2 1 2 C1 4.31 1 6.62 1 9 C0.34 9 -0.32 9 -1 9 C-1.09765625 2.84765625 -1.09765625 2.84765625 -1 1 C-0.67 0.67 -0.34 0.34 0 0 Z " fill="#5C5D60" transform="translate(924,932)"/>
<path d="M0 0 C0.66 0.33 1.32 0.66 2 1 C2 1.99 2 2.98 2 4 C1.67 4.33 1.34 4.66 1 5 C1.99 6.485 1.99 6.485 3 8 C2.01 8.495 2.01 8.495 1 9 C0.01 8.34 -0.98 7.68 -2 7 C-1.125 2.25 -1.125 2.25 0 0 Z " fill="#0F1112" transform="translate(451,585)"/>
<path d="M0 0 C0.33 0.66 0.66 1.32 1 2 C0.01 2.495 0.01 2.495 -1 3 C-0.34 3.66 0.32 4.32 1 5 C0.01 5.66 -0.98 6.32 -2 7 C-3.5 5.6875 -3.5 5.6875 -5 4 C-5 3.01 -5 2.02 -5 1 C-3.35 0.67 -1.7 0.34 0 0 Z " fill="#1C1F20" transform="translate(453,533)"/>
<path d="M0 0 C-0.66 1.32 -1.32 2.64 -2 4 C-3.65 4 -5.3 4 -7 4 C-6.67 3.34 -6.34 2.68 -6 2 C-6.99 1.34 -7.98 0.68 -9 0 C-5.52176885 -1.15941038 -3.54104422 -0.70820884 0 0 Z " fill="#080909" transform="translate(362,429)"/>
<path d="M0 0 C0.66 0 1.32 0 2 0 C2.33 1.65 2.66 3.3 3 5 C2.01 5.66 1.02 6.32 0 7 C-0.33 6.01 -0.66 5.02 -1 4 C-1.99 3.67 -2.98 3.34 -4 3 C-2.68 2.67 -1.36 2.34 0 2 C0 1.34 0 0.68 0 0 Z " fill="#E5E6E6" transform="translate(429,321)"/>
<path d="M0 0 C7.60344828 0.60344828 7.60344828 0.60344828 10 3 C8.54207116 3.05399736 7.08357288 3.09279177 5.625 3.125 C4.81289063 3.14820313 4.00078125 3.17140625 3.1640625 3.1953125 C1 3 1 3 -1 1 C-0.67 0.67 -0.34 0.34 0 0 Z " fill="#0E100F" transform="translate(345,549)"/>
<path d="M0 0 C1.65 0.33 3.3 0.66 5 1 C3.68 2.32 2.36 3.64 1 5 C-0.98 4.01 -2.96 3.02 -5 2 C-4.01 1.67 -3.02 1.34 -2 1 C-1.34 1.33 -0.68 1.66 0 2 C0 1.34 0 0.68 0 0 Z " fill="#0C0D0F" transform="translate(615,385)"/>
<path d="M0 0 C2 1 2 1 4 4 C4.125 7.1875 4.125 7.1875 4 10 C3.01 10.495 3.01 10.495 2 11 C0.80712589 7.12315913 0 4.08378077 0 0 Z " fill="#0A0C0C" transform="translate(524,661)"/>
<path d="M0 0 C1.32 0.33 2.64 0.66 4 1 C4 2.65 4 4.3 4 6 C3.01 6.33 2.02 6.66 1 7 C0.31292445 4.50935112 0 2.62113708 0 0 Z " fill="#0E0E0E" transform="translate(440,394)"/>
<path d="M0 0 C-1.98 0.33 -3.96 0.66 -6 1 C-6 1.99 -6 2.98 -6 4 C-8.31 4 -10.62 4 -13 4 C-8.93522219 0.68795882 -5.26054188 -1.94834884 0 0 Z " fill="#272828" transform="translate(557,363)"/>
<path d="M0 0 C1.65 0 3.3 0 5 0 C3.55746343 3.36591866 1.66735273 5.51047079 -1 8 C-0.67 5.36 -0.34 2.72 0 0 Z " fill="#161718" transform="translate(505,624)"/>
<path d="M0 0 C0.66 0.99 1.32 1.98 2 3 C0.84826645 5.46800047 -0.04783565 7.04783565 -2 9 C-4.125 9.625 -4.125 9.625 -6 10 C-5.65066406 9.52949219 -5.30132812 9.05898438 -4.94140625 8.57421875 C-4.48636719 7.95160156 -4.03132813 7.32898438 -3.5625 6.6875 C-2.88380859 5.76517578 -2.88380859 5.76517578 -2.19140625 4.82421875 C-0.82663692 2.90322899 -0.82663692 2.90322899 0 0 Z " fill="#E1E3E2" transform="translate(512,533)"/>
<path d="M0 0 C2.05078125 0.03255208 4.1015625 0.06510417 6.15234375 0.09765625 C6.15234375 0.42765625 6.15234375 0.75765625 6.15234375 1.09765625 C3.84234375 1.42765625 1.53234375 1.75765625 -0.84765625 2.09765625 C-1.17765625 3.74765625 -1.50765625 5.39765625 -1.84765625 7.09765625 C-2.17765625 7.09765625 -2.50765625 7.09765625 -2.84765625 7.09765625 C-2.89019981 5.09810879 -2.88846408 3.09723989 -2.84765625 1.09765625 C-1.84765625 0.09765625 -1.84765625 0.09765625 0 0 Z " fill="#292A2C" transform="translate(394.84765625,360.90234375)"/>
<path d="M0 0 C0.33 0.66 0.66 1.32 1 2 C1.66 2 2.32 2 3 2 C2.67 3.32 2.34 4.64 2 6 C0.68 6.33 -0.64 6.66 -2 7 C-1.34 4.69 -0.68 2.38 0 0 Z " fill="#1C1C1C" transform="translate(469,333)"/>
<path d="M0 0 C1.2065625 0.0309375 1.2065625 0.0309375 2.4375 0.0625 C-2.3125 4.9375 -2.3125 4.9375 -4.5625 6.0625 C-3.48963568 0.08511307 -3.48963568 0.08511307 0 0 Z " fill="#EAEBEB" transform="translate(529.5625,554.9375)"/>
<path d="M0 0 C0.99 0.33 1.98 0.66 3 1 C2.67 2.32 2.34 3.64 2 5 C2.66 5.33 3.32 5.66 4 6 C3.67 6.99 3.34 7.98 3 9 C2.34 9 1.68 9 1 9 C0.67 6.03 0.34 3.06 0 0 Z " fill="#0C0D0D" transform="translate(440,457)"/>
<path d="M0 0 C1.94268841 2.91403262 3.46395304 5.85808576 5 9 C3.68 9 2.36 9 1 9 C0.67 6.03 0.34 3.06 0 0 Z " fill="#262629" transform="translate(317,454)"/>
<path d="M0 0 C2.9375 0.8125 2.9375 0.8125 6 2 C6.33 2.99 6.66 3.98 7 5 C6.34 5 5.68 5 5 5 C5 4.34 5 3.68 5 3 C4.38125 3.185625 3.7625 3.37125 3.125 3.5625 C1 4 1 4 -1 3 C-0.67 2.01 -0.34 1.02 0 0 Z " fill="#0C0C0C" transform="translate(432,451)"/>
<path d="M0 0 C1.65 1.65 3.3 3.3 5 5 C4.67 5.99 4.34 6.98 4 8 C3.34 8 2.68 8 2 8 C0.74335022 5.09399739 0 3.20395416 0 0 Z " fill="#0C0D0F" transform="translate(602,348)"/>
<path d="M0 0 C0.33 0.66 0.66 1.32 1 2 C-1.84936103 5.00765886 -4.23511958 7.27845212 -8 9 C-7.04270084 7.87411986 -6.08412105 6.7493285 -5.125 5.625 C-4.59132813 4.99851562 -4.05765625 4.37203125 -3.5078125 3.7265625 C-2.38567993 2.44163349 -1.20628025 1.20628025 0 0 Z " fill="#E4E6E5" transform="translate(446,296)"/>
<path d="M0 0 C-2.35277269 2.72426311 -4.62496331 3.8141763 -8 5 C-7.625 3.0625 -7.625 3.0625 -7 1 C-4.53721199 -0.231394 -2.7204945 -0.07159196 0 0 Z " fill="#08090A" transform="translate(565,499)"/>
<path d="M0 0 C2.64 0.33 5.28 0.66 8 1 C8 2.32 8 3.64 8 5 C4.62496331 3.8141763 2.35277269 2.72426311 0 0 Z " fill="#1E201F" transform="translate(424,484)"/>
<path d="M0 0 C1.98 0 3.96 0 6 0 C6.33 1.32 6.66 2.64 7 4 C6.401875 3.835 5.80375 3.67 5.1875 3.5 C2.88655664 2.8885876 2.88655664 2.8885876 0 3 C0 2.01 0 1.02 0 0 Z " fill="#F3F3F4" transform="translate(476,317)"/>
<path d="M0 0 C0.103125 0.598125 0.20625 1.19625 0.3125 1.8125 C1.08876455 4.28243264 2.07088921 5.32251235 4 7 C0.74456771 6.65120368 -0.01873107 5.97866739 -2.25 3.4375 C-3.11625 2.2309375 -3.11625 2.2309375 -4 1 C-2.68 0.67 -1.36 0.34 0 0 Z " fill="#0A0A0B" transform="translate(519,295)"/>
<path d="M0 0 C1.98 0.99 1.98 0.99 4 2 C4 3.32 4 4.64 4 6 C2 4.6875 2 4.6875 0 3 C0 2.01 0 1.02 0 0 Z " fill="#090B0A" transform="translate(370,505)"/>
<path d="M0 0 C1.32 0.66 2.64 1.32 4 2 C3.01 2.495 3.01 2.495 2 3 C1.67 3.66 1.34 4.32 1 5 C-1.475 4.01 -1.475 4.01 -4 3 C-2.68 2.01 -1.36 1.02 0 0 Z " fill="#1A1A1E" transform="translate(452,492)"/>
<path d="M0 0 C2.475 0.99 2.475 0.99 5 2 C4.67 2.99 4.34 3.98 4 5 C4 4.34 4 3.68 4 3 C3.34 3 2.68 3 2 3 C1.67 3.66 1.34 4.32 1 5 C0.34 3.68 -0.32 2.36 -1 1 C-0.67 0.67 -0.34 0.34 0 0 Z " fill="#0B0B0D" transform="translate(426,446)"/>
<path d="M0 0 C1.98 0.66 3.96 1.32 6 2 C5.01 2.99 4.02 3.98 3 5 C2.67 4.34 2.34 3.68 2 3 C1.01 3 0.02 3 -1 3 C-0.67 2.01 -0.34 1.02 0 0 Z " fill="#1C1C1E" transform="translate(421,443)"/>
<path d="M0 0 C1.2065625 0.0309375 1.2065625 0.0309375 2.4375 0.0625 C1.4475 0.5575 1.4475 0.5575 0.4375 1.0625 C0.4375 2.0525 0.4375 3.0425 0.4375 4.0625 C-0.5525 4.3925 -1.5425 4.7225 -2.5625 5.0625 C-3.125 3.125 -3.125 3.125 -3.5625 1.0625 C-2.5625 0.0625 -2.5625 0.0625 0 0 Z " fill="#F2F4F3" transform="translate(596.5625,424.9375)"/>
<path d="M0 0 C0.66 0 1.32 0 2 0 C1.8125 2.375 1.8125 2.375 1 5 C-1.5625 6.3125 -1.5625 6.3125 -4 7 C-2.79618552 4.50638429 -1.54571278 2.31856917 0 0 Z " fill="#E4E5E6" transform="translate(325,403)"/>
<path d="M0 0 C0.66 0.66 1.32 1.32 2 2 C0.6875 3.5 0.6875 3.5 -1 5 C-1.99 5 -2.98 5 -4 5 C-3.6875 3.0625 -3.6875 3.0625 -3 1 C-2.01 0.67 -1.02 0.34 0 0 Z " fill="#191A1B" transform="translate(483,381)"/>
<path d="M0 0 C0.99 0.33 1.98 0.66 3 1 C2.67 1.99 2.34 2.98 2 4 C2.87483915 6.16715557 2.87483915 6.16715557 4 8 C3.01 7.67 2.02 7.34 1 7 C0.67 4.69 0.34 2.38 0 0 Z " fill="#090B0A" transform="translate(469,367)"/>
<path d="M0 0 C1.65 0.33 3.3 0.66 5 1 C5 1.99 5 2.98 5 4 C3.35 4 1.7 4 0 4 C-0.33 3.34 -0.66 2.68 -1 2 C-0.67 1.34 -0.34 0.68 0 0 Z " fill="#090B0A" transform="translate(481,324)"/>
<path d="M0 0 C-0.3125 1.9375 -0.3125 1.9375 -1 4 C-1.99 4.33 -2.98 4.66 -4 5 C-4.66 4.34 -5.32 3.68 -6 3 C-2.25 0 -2.25 0 0 0 Z " fill="#0A0B0D" transform="translate(480,322)"/>
<path d="M0 0 C2 3.75 2 3.75 2 6 C1.01 6.33 0.02 6.66 -1 7 C-1.625 4.625 -1.625 4.625 -2 2 C-1.34 1.34 -0.68 0.68 0 0 Z " fill="#101314" transform="translate(525,301)"/>
</g>
</svg>
