<?xml version="1.0" encoding="UTF-8"?>
<svg version="1.1" xmlns="http://www.w3.org/2000/svg" width="960" height="960" viewBox="0 0 960 960">
<g transform="translate(480, 480) scale(1.875) translate(-480, -480)">
<path d="M0 0 C10.38809445 7.90735548 15.52602592 17.79387001 21.3671875 29.1796875 C24.2320077 28.6379583 26.89535878 28.01027407 29.6796875 27.1171875 C38.67591226 24.83814389 49.61856998 25.21405444 58.3671875 28.1796875 C59.23730469 28.4478125 60.10742188 28.7159375 61.00390625 28.9921875 C67.40478005 31.08797155 72.32360833 33.7263144 77.3671875 38.1796875 C77.97304688 38.70433594 78.57890625 39.22898437 79.203125 39.76953125 C88.56474679 48.45662571 94.04034751 60.56169941 95.3671875 73.1796875 C95.47481056 76.49385477 95.46246361 79.80175774 95.4296875 83.1171875 C95.42517578 83.99181641 95.42066406 84.86644531 95.41601562 85.76757812 C95.40433584 87.90497797 95.38640439 90.04234213 95.3671875 92.1796875 C95.96144531 92.39882813 96.55570313 92.61796875 97.16796875 92.84375 C112.86399438 98.84876136 124.22843865 106.29689298 131.29980469 121.91381836 C136.33877298 133.69995898 135.90360153 148.29172635 131.64453125 160.265625 C129.36348902 165.46947057 126.79919557 170.81539195 122.68359375 174.81640625 C121.11393651 176.12610382 121.11393651 176.12610382 121.3671875 178.3671875 C122.2712949 180.90998957 123.15964035 182.38520845 124.6796875 184.5546875 C131.27677179 194.71879992 132.97216157 208.0105498 130.671875 219.71875 C128.76143314 227.21603023 126.16535851 233.13034785 121.3671875 239.1796875 C120.95082031 239.78039062 120.53445313 240.38109375 120.10546875 241 C113.36243389 250.03121185 101.91039704 255.07393585 91.3671875 258.1796875 C90.35205078 258.51613281 90.35205078 258.51613281 89.31640625 258.859375 C75.34683358 262.81968104 57.15304027 260.87252163 43.8046875 255.4921875 C39.92604899 254.01125279 37.49548088 253.84626529 33.3671875 254.1796875 C17.28498852 261.52069127 3.54972893 274.53805078 -3.37890625 290.79296875 C-10.31149977 309.51745033 -10.58157191 334.34219254 -2.37426758 352.82885742 C1.42058482 360.66128736 6.72327043 366.97464611 13.14453125 372.7890625 C13.54800781 373.24796875 13.95148438 373.706875 14.3671875 374.1796875 C14.12265626 377.52161442 13.76175193 378.78512307 11.3671875 381.1796875 C8.6426361 381.38348581 6.01930784 381.46287027 3.29321289 381.4543457 C2.45893265 381.45945663 1.6246524 381.46456757 0.76509094 381.46983337 C-2.00173044 381.48377066 -4.76830387 381.48276949 -7.53515625 381.48046875 C-9.45325311 381.48435347 -11.3713491 381.48868767 -13.28944397 381.49345398 C-17.31367784 381.50092513 -21.33782399 381.50061849 -25.36206055 381.49536133 C-30.52518631 381.48956612 -35.68795342 381.50649461 -40.85101986 381.529706 C-44.81350309 381.54442106 -48.77589952 381.54531808 -52.73840523 381.54219627 C-54.64224521 381.54271063 -56.5460899 381.54796969 -58.44990349 381.55800819 C-61.10998874 381.57031198 -63.76936981 381.56361758 -66.42944336 381.55200195 C-67.21967896 381.55964569 -68.00991455 381.56728943 -68.82409668 381.57516479 C-74.13670186 381.52375522 -74.13670186 381.52375522 -76.65284729 379.7787323 C-77.6328125 378.1796875 -77.6328125 378.1796875 -77.515625 376.22265625 C-76.49095357 373.85140334 -75.27148611 372.37844829 -73.5078125 370.4921875 C-56.61644574 351.73169409 -54.55928284 333.84112476 -55.44628906 309.20654297 C-56.46961013 292.6003458 -64.4714426 278.39999902 -76.6328125 267.1796875 C-87.15060101 258.34571719 -87.15060101 258.34571719 -99.828125 253.96484375 C-105.59418892 254.79356954 -110.9934174 256.40689694 -116.51953125 258.2421875 C-133.62047869 263.39178271 -153.44546184 260.55075617 -169.05493164 252.42675781 C-181.33393113 245.66031323 -188.77457032 236.00932059 -193.04394531 222.61352539 C-194.07000174 218.37274739 -194.12011349 214.21262299 -194.0703125 209.8671875 C-194.06346436 208.94655518 -194.05661621 208.02592285 -194.04956055 207.07739258 C-193.81543093 197.11855327 -191.49839642 188.93542435 -185.48828125 180.8984375 C-184.46297473 179.20918203 -184.46297473 179.20918203 -184.7890625 177.24609375 C-185.83208179 174.69166226 -187.26292806 172.80392702 -188.9453125 170.6171875 C-197.00245543 159.43314516 -198.80667681 146.68392492 -197.6328125 133.1796875 C-195.11151056 119.9536579 -188.66851115 108.83833393 -177.6484375 101.078125 C-171.03216305 96.80705581 -165.23576297 94.22184551 -157.6328125 92.1796875 C-157.65375977 91.52073486 -157.67470703 90.86178223 -157.69628906 90.18286133 C-158.23308485 70.72741145 -157.28458582 55.43160116 -143.3828125 40.4296875 C-131.04009017 28.91719313 -117.34727074 25.45177128 -100.88037109 26.02148438 C-94.71205523 26.4556652 -88.65590618 27.83410274 -82.6328125 29.1796875 C-82.2821875 27.9215625 -81.9315625 26.6634375 -81.5703125 25.3671875 C-77.28065547 12.57877333 -68.28717778 2.68820227 -56.6328125 -3.8203125 C-37.58368709 -12.72110032 -17.70919707 -12.24404426 0 0 Z " fill="currentColor" transform="translate(511.6328125,293.8203125)"/>
</g>
<style>
  @media (prefers-color-scheme: dark) {
    path {
      fill: white;
    }
  }
  @media (prefers-color-scheme: light) {
    path {
      fill: black;
    }
  }
</style>
</svg>
